name Walk7.mot
datacolumns 19
datarows 20
range 1.53000000 1.54900000
endheader

                time	   L_ground_force_vx	   L_ground_force_vy	   L_ground_force_vz	   L_ground_force_px	   L_ground_force_py	   L_ground_force_pz	   R_ground_force_vx	   R_ground_force_vy	   R_ground_force_vz	   R_ground_force_px	   R_ground_force_py	   R_ground_force_pz	   L_ground_torque_x	   L_ground_torque_y	   L_ground_torque_z	   R_ground_torque_x	   R_ground_torque_y	   R_ground_torque_z	
          1.53000000	         24.66863266	        631.46999319	         37.85544555	         -0.34928442	          0.00000000	         -0.04765562	         -0.06116735	          0.34711744	          0.00064257	          0.00014709	          0.00000000	          0.00010603	          0.00000000	         -1.95421357	          0.00000000	          0.00000000	          0.00000986	          0.00000000	
          1.53100000	         24.71328702	        632.58851730	         38.02360078	         -0.34849280	          0.00000000	         -0.04775407	         -0.06369594	          0.36140514	          0.00070259	          0.00014945	          0.00000000	          0.00010756	          0.00000000	         -1.96485894	          0.00000000	          0.00000000	          0.00001594	          0.00000000	
          1.53200000	         24.75402410	        633.71905882	         38.19450341	         -0.34769715	          0.00000000	         -0.04785297	         -0.06619645	          0.37552794	          0.00076529	          0.00015141	          0.00000000	          0.00010878	          0.00000000	         -1.97509600	          0.00000000	          0.00000000	          0.00002252	          0.00000000	
          1.53300000	         24.79109434	        634.86168732	         38.36821840	         -0.34689765	          0.00000000	         -0.04795232	         -0.06865593	          0.38941221	          0.00083065	          0.00015293	          0.00000000	          0.00010967	          0.00000000	         -1.98491226	          0.00000000	          0.00000000	          0.00002961	          0.00000000	
          1.53400000	         24.82477495	        636.01646306	         38.54480370	         -0.34609448	          0.00000000	         -0.04805206	         -0.07106042	          0.40297844	          0.00089865	          0.00015396	          0.00000000	          0.00011019	          0.00000000	         -1.99429625	          0.00000000	          0.00000000	          0.00003725	          0.00000000	
          1.53500000	         24.85536991	        637.18343934	         38.72430962	         -0.34528786	          0.00000000	         -0.04815219	         -0.07339487	          0.41614105	          0.00096927	          0.00015445	          0.00000000	          0.00011030	          0.00000000	         -2.00323738	          0.00000000	          0.00000000	          0.00004543	          0.00000000	
          1.53600000	         24.88320970	        638.36266479	         38.90677799	         -0.34447799	          0.00000000	         -0.04825266	         -0.07564313	          0.42880817	          0.00104244	          0.00015434	          0.00000000	          0.00010997	          0.00000000	         -2.01172582	          0.00000000	          0.00000000	          0.00005419	          0.00000000	
          1.53700000	         24.90865074	        639.55418585	         39.09224126	         -0.34366511	          0.00000000	         -0.04835344	         -0.07778792	          0.44088144	          0.00111811	          0.00015359	          0.00000000	          0.00010915	          0.00000000	         -2.01975236	          0.00000000	          0.00000000	          0.00006355	          0.00000000	
          1.53800000	         24.93207476	        640.75804951	         39.28072164	         -0.34284948	          0.00000000	         -0.04845450	         -0.07981075	          0.45225583	          0.00119619	          0.00015214	          0.00000000	          0.00010781	          0.00000000	         -2.02730831	          0.00000000	          0.00000000	          0.00007350	          0.00000000	
          1.53900000	         24.95388809	        641.97430606	         39.47223034	         -0.34203134	          0.00000000	         -0.04855578	         -0.08169194	          0.46281940	          0.00127658	          0.00014992	          0.00000000	          0.00010589	          0.00000000	         -2.03438550	          0.00000000	          0.00000000	          0.00008408	          0.00000000	
          1.54000000	         24.97452084	        643.20301167	         39.66676693	         -0.34121097	          0.00000000	         -0.04865725	         -0.08341057	          0.47245319	          0.00135918	          0.00014687	          0.00000000	          0.00010336	          0.00000000	         -2.04097636	          0.00000000	          0.00000000	          0.00009530	          0.00000000	
          1.54100000	         24.99442590	        644.44423106	         39.86431892	         -0.34038865	          0.00000000	         -0.04875885	         -0.08494441	          0.48103101	          0.00144383	          0.00014294	          0.00000000	          0.00010017	          0.00000000	         -2.04707405	          0.00000000	          0.00000000	          0.00010716	          0.00000000	
          1.54200000	         25.01407777	        645.69804047	         40.06486155	         -0.33956468	          0.00000000	         -0.04886052	         -0.08626998	          0.48841931	          0.00153039	          0.00013805	          0.00000000	          0.00009627	          0.00000000	         -2.05267269	          0.00000000	          0.00000000	          0.00011968	          0.00000000	
          1.54300000	         25.03397128	        646.96453093	         40.26835782	         -0.33873937	          0.00000000	         -0.04896221	         -0.08736244	          0.49447704	          0.00161868	          0.00013213	          0.00000000	          0.00009161	          0.00000000	         -2.05776753	          0.00000000	          0.00000000	          0.00013288	          0.00000000	
          1.54400000	         25.05462015	        648.24381151	         40.47475877	         -0.33791303	          0.00000000	         -0.04906386	         -0.08819562	          0.49905554	          0.00170848	          0.00012512	          0.00000000	          0.00008613	          0.00000000	         -2.06235515	          0.00000000	          0.00000000	          0.00014675	          0.00000000	
          1.54500000	         25.07655562	        649.53601218	         40.68400399	         -0.33708600	          0.00000000	         -0.04916542	         -0.08874198	          0.50199844	          0.00179957	          0.00011694	          0.00000000	          0.00007979	          0.00000000	         -2.06643359	          0.00000000	          0.00000000	          0.00016130	          0.00000000	
          1.54600000	         25.10032490	        650.84128612	         40.89602215	         -0.33625862	          0.00000000	         -0.04926684	         -0.08897261	          0.50314161	          0.00189169	          0.00010752	          0.00000000	          0.00007254	          0.00000000	         -2.07000241	          0.00000000	          0.00000000	          0.00017654	          0.00000000	
          1.54700000	         25.12648975	        652.15981170	         41.11073146	         -0.33543124	          0.00000000	         -0.04936806	         -0.08885723	          0.50231307	          0.00198456	          0.00009678	          0.00000000	          0.00006430	          0.00000000	         -2.07306268	          0.00000000	          0.00000000	          0.00019247	          0.00000000	
          1.54800000	         25.15562496	        653.49179434	         41.32803977	         -0.33460423	          0.00000000	         -0.04946902	         -0.08836415	          0.49933304	          0.00207787	          0.00008464	          0.00000000	          0.00005504	          0.00000000	         -2.07561684	          0.00000000	          0.00000000	          0.00020908	          0.00000000	
          1.54900000	         25.18831704	        654.83746803	         41.54784453	         -0.33377795	          0.00000000	         -0.04956968	         -0.08746032	          0.49401388	          0.00217126	          0.00007102	          0.00000000	          0.00004469	          0.00000000	         -2.07766853	          0.00000000	          0.00000000	          0.00022637	          0.00000000	
